<mxfile host="app.diagrams.net" modified="2020-11-08T06:55:16.627Z" agent="5.0 (Windows NT 10.0; Win64; x64) AppleWebKit/537.36 (KHTML, like Gecko) Chrome/86.0.4240.183 Safari/537.36" etag="kSrqPxz-OM7gNtRhozx4" version="13.9.2" type="github">
  <diagram id="oNnapiWXpDdgXMv7tgSL" name="Page-1">
    <mxGraphModel dx="1640" dy="403" grid="1" gridSize="10" guides="1" tooltips="1" connect="1" arrows="1" fold="1" page="1" pageScale="1" pageWidth="827" pageHeight="1169" math="0" shadow="0">
      <root>
        <mxCell id="0" />
        <mxCell id="1" parent="0" />
        <mxCell id="6SX3i00tfd3ZIVTdmGOI-1" value="1. friend runs the malicious executable file&amp;nbsp;" style="rounded=0;whiteSpace=wrap;html=1;" parent="1" vertex="1">
          <mxGeometry x="-80" y="100" width="120" height="60" as="geometry" />
        </mxCell>
        <mxCell id="6SX3i00tfd3ZIVTdmGOI-2" value="1.1 attacker convince friend to download the software from the resource provided by attacker&amp;nbsp;" style="rounded=0;whiteSpace=wrap;html=1;" parent="1" vertex="1">
          <mxGeometry x="-400" y="250" width="150" height="60" as="geometry" />
        </mxCell>
        <mxCell id="6SX3i00tfd3ZIVTdmGOI-3" value="" style="endArrow=classic;html=1;exitX=0.5;exitY=1;exitDx=0;exitDy=0;entryX=0.5;entryY=0;entryDx=0;entryDy=0;" parent="1" source="6SX3i00tfd3ZIVTdmGOI-1" target="6SX3i00tfd3ZIVTdmGOI-2" edge="1">
          <mxGeometry width="50" height="50" relative="1" as="geometry">
            <mxPoint x="20" y="390" as="sourcePoint" />
            <mxPoint x="70" y="340" as="targetPoint" />
          </mxGeometry>
        </mxCell>
        <mxCell id="6SX3i00tfd3ZIVTdmGOI-4" value="1.2&amp;nbsp; friend download the malicious executale file from a forged website&amp;nbsp;&amp;nbsp;" style="rounded=0;whiteSpace=wrap;html=1;" parent="1" vertex="1">
          <mxGeometry x="299" y="250" width="150" height="60" as="geometry" />
        </mxCell>
        <mxCell id="6SX3i00tfd3ZIVTdmGOI-5" value="" style="endArrow=classic;html=1;exitX=0.5;exitY=1;exitDx=0;exitDy=0;entryX=0.5;entryY=0;entryDx=0;entryDy=0;" parent="1" source="6SX3i00tfd3ZIVTdmGOI-1" target="6SX3i00tfd3ZIVTdmGOI-4" edge="1">
          <mxGeometry width="50" height="50" relative="1" as="geometry">
            <mxPoint x="40" y="200" as="sourcePoint" />
            <mxPoint x="90" y="150" as="targetPoint" />
          </mxGeometry>
        </mxCell>
        <mxCell id="6SX3i00tfd3ZIVTdmGOI-7" value="" style="endArrow=classic;html=1;exitX=0.5;exitY=1;exitDx=0;exitDy=0;entryX=0.5;entryY=0;entryDx=0;entryDy=0;" parent="1" source="6SX3i00tfd3ZIVTdmGOI-1" target="mvmS6Ap56ttqC1PvQk6y-17" edge="1">
          <mxGeometry width="50" height="50" relative="1" as="geometry">
            <mxPoint x="90" y="200" as="sourcePoint" />
            <mxPoint x="420" y="130" as="targetPoint" />
          </mxGeometry>
        </mxCell>
        <mxCell id="6SX3i00tfd3ZIVTdmGOI-8" value="" style="endArrow=classic;html=1;exitX=0.5;exitY=1;exitDx=0;exitDy=0;entryX=0.5;entryY=0;entryDx=0;entryDy=0;" parent="1" source="6SX3i00tfd3ZIVTdmGOI-2" target="6SX3i00tfd3ZIVTdmGOI-9" edge="1">
          <mxGeometry width="50" height="50" relative="1" as="geometry">
            <mxPoint x="-300" y="355" as="sourcePoint" />
            <mxPoint x="-420" y="355" as="targetPoint" />
          </mxGeometry>
        </mxCell>
        <mxCell id="6SX3i00tfd3ZIVTdmGOI-9" value="1.1.1 Attacker send the the download link to friend by email, QQ or wechat" style="rounded=0;whiteSpace=wrap;html=1;" parent="1" vertex="1">
          <mxGeometry x="-490" y="355" width="120" height="60" as="geometry" />
        </mxCell>
        <mxCell id="6SX3i00tfd3ZIVTdmGOI-10" value="1.1.2 Attacker send the software directly through mobile HDD&amp;nbsp;" style="rounded=0;whiteSpace=wrap;html=1;" parent="1" vertex="1">
          <mxGeometry x="-290" y="355" width="120" height="60" as="geometry" />
        </mxCell>
        <mxCell id="6SX3i00tfd3ZIVTdmGOI-11" value="" style="endArrow=classic;html=1;exitX=0.5;exitY=1;exitDx=0;exitDy=0;entryX=0.5;entryY=0;entryDx=0;entryDy=0;" parent="1" source="6SX3i00tfd3ZIVTdmGOI-2" target="6SX3i00tfd3ZIVTdmGOI-10" edge="1">
          <mxGeometry width="50" height="50" relative="1" as="geometry">
            <mxPoint x="-330" y="325" as="sourcePoint" />
            <mxPoint x="-280" y="275" as="targetPoint" />
          </mxGeometry>
        </mxCell>
        <mxCell id="6SX3i00tfd3ZIVTdmGOI-15" value="1.2.1 friend accesses the forged website which provides a fake MD5&amp;nbsp;" style="rounded=0;whiteSpace=wrap;html=1;" parent="1" vertex="1">
          <mxGeometry x="299" y="330" width="150" height="50" as="geometry" />
        </mxCell>
        <mxCell id="6SX3i00tfd3ZIVTdmGOI-16" value="1.2.1.1 Attacker send the address to friend directly and convince friend to access it" style="rounded=0;whiteSpace=wrap;html=1;" parent="1" vertex="1">
          <mxGeometry x="190" y="450" width="166" height="60" as="geometry" />
        </mxCell>
        <mxCell id="6SX3i00tfd3ZIVTdmGOI-17" value="1.2.1.2.1 attacker intercept user`s access request&amp;nbsp; by ARP deception&amp;nbsp;" style="rounded=0;whiteSpace=wrap;html=1;" parent="1" vertex="1">
          <mxGeometry x="344" y="570" width="140" height="55" as="geometry" />
        </mxCell>
        <mxCell id="6SX3i00tfd3ZIVTdmGOI-18" value="" style="endArrow=classic;html=1;exitX=0.5;exitY=1;exitDx=0;exitDy=0;entryX=0.5;entryY=0;entryDx=0;entryDy=0;" parent="1" source="6SX3i00tfd3ZIVTdmGOI-4" target="6SX3i00tfd3ZIVTdmGOI-15" edge="1">
          <mxGeometry width="50" height="50" relative="1" as="geometry">
            <mxPoint x="354" y="410" as="sourcePoint" />
            <mxPoint x="404" y="360" as="targetPoint" />
          </mxGeometry>
        </mxCell>
        <mxCell id="6SX3i00tfd3ZIVTdmGOI-20" value="" style="endArrow=classic;html=1;exitX=0.5;exitY=1;exitDx=0;exitDy=0;entryX=0.5;entryY=0;entryDx=0;entryDy=0;" parent="1" target="6SX3i00tfd3ZIVTdmGOI-16" edge="1" source="6SX3i00tfd3ZIVTdmGOI-15">
          <mxGeometry width="50" height="50" relative="1" as="geometry">
            <mxPoint x="374" y="420" as="sourcePoint" />
            <mxPoint x="260" y="430" as="targetPoint" />
          </mxGeometry>
        </mxCell>
        <mxCell id="mvmS6Ap56ttqC1PvQk6y-1" value="1.2.1.2 attacker send the packet containing the forged website address to friend`s computer" style="rounded=0;whiteSpace=wrap;html=1;" vertex="1" parent="1">
          <mxGeometry x="430" y="445" width="156" height="65" as="geometry" />
        </mxCell>
        <mxCell id="mvmS6Ap56ttqC1PvQk6y-2" value="" style="endArrow=classic;html=1;exitX=0.5;exitY=1;exitDx=0;exitDy=0;entryX=0.5;entryY=0;entryDx=0;entryDy=0;" edge="1" parent="1" source="mvmS6Ap56ttqC1PvQk6y-1" target="6SX3i00tfd3ZIVTdmGOI-17">
          <mxGeometry width="50" height="50" relative="1" as="geometry">
            <mxPoint x="564" y="425" as="sourcePoint" />
            <mxPoint x="444" y="425" as="targetPoint" />
          </mxGeometry>
        </mxCell>
        <mxCell id="mvmS6Ap56ttqC1PvQk6y-3" value="" style="endArrow=classic;html=1;entryX=0.5;entryY=0;entryDx=0;entryDy=0;" edge="1" parent="1" target="mvmS6Ap56ttqC1PvQk6y-1">
          <mxGeometry width="50" height="50" relative="1" as="geometry">
            <mxPoint x="374" y="380" as="sourcePoint" />
            <mxPoint x="324" y="440" as="targetPoint" />
          </mxGeometry>
        </mxCell>
        <mxCell id="mvmS6Ap56ttqC1PvQk6y-4" value="1.2.1.2.2 attacker intercept user`s access request&amp;nbsp; by DNS attack" style="rounded=0;whiteSpace=wrap;html=1;" vertex="1" parent="1">
          <mxGeometry x="540" y="570" width="140" height="55" as="geometry" />
        </mxCell>
        <mxCell id="mvmS6Ap56ttqC1PvQk6y-5" value="" style="endArrow=classic;html=1;entryX=0.5;entryY=0;entryDx=0;entryDy=0;exitX=0.5;exitY=1;exitDx=0;exitDy=0;" edge="1" parent="1" source="mvmS6Ap56ttqC1PvQk6y-1" target="mvmS6Ap56ttqC1PvQk6y-4">
          <mxGeometry width="50" height="50" relative="1" as="geometry">
            <mxPoint x="374" y="530" as="sourcePoint" />
            <mxPoint x="314" y="570" as="targetPoint" />
          </mxGeometry>
        </mxCell>
        <mxCell id="mvmS6Ap56ttqC1PvQk6y-6" value="1.3.1 friend send the download request from real website" style="rounded=0;whiteSpace=wrap;html=1;" vertex="1" parent="1">
          <mxGeometry x="-90" y="355" width="140" height="60" as="geometry" />
        </mxCell>
        <mxCell id="mvmS6Ap56ttqC1PvQk6y-12" value="1.3.1.2.1 Attack switch the real file with the malicious file in the packet which website send to friend&amp;nbsp;&amp;nbsp;" style="rounded=0;whiteSpace=wrap;html=1;" vertex="1" parent="1">
          <mxGeometry x="-220" y="597.5" width="160" height="60" as="geometry" />
        </mxCell>
        <mxCell id="mvmS6Ap56ttqC1PvQk6y-16" value="" style="edgeStyle=none;rounded=0;orthogonalLoop=1;jettySize=auto;html=1;exitX=0.5;exitY=1;exitDx=0;exitDy=0;entryX=0.5;entryY=0;entryDx=0;entryDy=0;" edge="1" parent="1" source="mvmS6Ap56ttqC1PvQk6y-13" target="mvmS6Ap56ttqC1PvQk6y-12">
          <mxGeometry relative="1" as="geometry">
            <mxPoint x="60" y="590" as="targetPoint" />
            <Array as="points">
              <mxPoint x="-70" y="560" />
            </Array>
          </mxGeometry>
        </mxCell>
        <mxCell id="mvmS6Ap56ttqC1PvQk6y-22" style="rounded=0;orthogonalLoop=1;jettySize=auto;html=1;exitX=0.5;exitY=1;exitDx=0;exitDy=0;entryX=0.5;entryY=0;entryDx=0;entryDy=0;" edge="1" parent="1" source="mvmS6Ap56ttqC1PvQk6y-13" target="mvmS6Ap56ttqC1PvQk6y-23">
          <mxGeometry relative="1" as="geometry">
            <mxPoint x="40" y="600" as="targetPoint" />
          </mxGeometry>
        </mxCell>
        <mxCell id="mvmS6Ap56ttqC1PvQk6y-13" value="1.3.1.2 Attacker send the tampered pakcet to friend which contains the malicious file and MD5 hash code&amp;nbsp;" style="rounded=0;whiteSpace=wrap;html=1;" vertex="1" parent="1">
          <mxGeometry x="-110" y="470" width="180" height="60" as="geometry" />
        </mxCell>
        <mxCell id="mvmS6Ap56ttqC1PvQk6y-15" style="rounded=0;orthogonalLoop=1;jettySize=auto;html=1;entryX=0.5;entryY=0;entryDx=0;entryDy=0;exitX=0.5;exitY=1;exitDx=0;exitDy=0;" edge="1" parent="1" source="mvmS6Ap56ttqC1PvQk6y-6" target="mvmS6Ap56ttqC1PvQk6y-13">
          <mxGeometry relative="1" as="geometry">
            <mxPoint x="35" y="450" as="sourcePoint" />
            <mxPoint x="-70" y="500.0000000000001" as="targetPoint" />
          </mxGeometry>
        </mxCell>
        <mxCell id="mvmS6Ap56ttqC1PvQk6y-18" style="edgeStyle=none;rounded=0;orthogonalLoop=1;jettySize=auto;html=1;entryX=0.5;entryY=0;entryDx=0;entryDy=0;exitX=0.5;exitY=1;exitDx=0;exitDy=0;" edge="1" parent="1" source="mvmS6Ap56ttqC1PvQk6y-17" target="mvmS6Ap56ttqC1PvQk6y-6">
          <mxGeometry relative="1" as="geometry" />
        </mxCell>
        <mxCell id="mvmS6Ap56ttqC1PvQk6y-17" value="1.3 friend download the malicious file from the real website" style="rounded=0;whiteSpace=wrap;html=1;" vertex="1" parent="1">
          <mxGeometry x="-90" y="250" width="140" height="60" as="geometry" />
        </mxCell>
        <mxCell id="mvmS6Ap56ttqC1PvQk6y-21" style="edgeStyle=orthogonalEdgeStyle;rounded=0;orthogonalLoop=1;jettySize=auto;html=1;entryX=0.5;entryY=1;entryDx=0;entryDy=0;" edge="1" parent="1" source="mvmS6Ap56ttqC1PvQk6y-20" target="mvmS6Ap56ttqC1PvQk6y-12">
          <mxGeometry relative="1" as="geometry" />
        </mxCell>
        <mxCell id="mvmS6Ap56ttqC1PvQk6y-20" value="1.3.1.2.1 Attack monitor and intercept the download request from website by MITM" style="rounded=0;whiteSpace=wrap;html=1;" vertex="1" parent="1">
          <mxGeometry x="-220" y="697.5" width="160" height="60" as="geometry" />
        </mxCell>
        <mxCell id="mvmS6Ap56ttqC1PvQk6y-23" value="1.3.1.2.1 Attack get the MD5 hash code from the friend and website&amp;nbsp;" style="rounded=0;whiteSpace=wrap;html=1;" vertex="1" parent="1">
          <mxGeometry x="10" y="597.5" width="160" height="60" as="geometry" />
        </mxCell>
        <mxCell id="mvmS6Ap56ttqC1PvQk6y-24" value="And" style="text;html=1;align=center;verticalAlign=middle;resizable=0;points=[];autosize=1;" vertex="1" parent="1">
          <mxGeometry x="-40" y="540" width="40" height="20" as="geometry" />
        </mxCell>
        <mxCell id="mvmS6Ap56ttqC1PvQk6y-27" style="edgeStyle=orthogonalEdgeStyle;rounded=0;orthogonalLoop=1;jettySize=auto;html=1;" edge="1" parent="1" source="mvmS6Ap56ttqC1PvQk6y-28">
          <mxGeometry relative="1" as="geometry">
            <mxPoint x="90" y="658" as="targetPoint" />
          </mxGeometry>
        </mxCell>
        <mxCell id="mvmS6Ap56ttqC1PvQk6y-28" value="1.3.1.2.1 Attack monitor and intercept the download request from website by MITM" style="rounded=0;whiteSpace=wrap;html=1;" vertex="1" parent="1">
          <mxGeometry x="10" y="697.5" width="160" height="60" as="geometry" />
        </mxCell>
      </root>
    </mxGraphModel>
  </diagram>
</mxfile>
